<svg width="153" height="153" viewBox="0 0 153 153" fill="none" xmlns="http://www.w3.org/2000/svg">
<path d="M76.4914 152.581C118.424 152.581 152.416 118.588 152.416 76.6558C152.416 34.7236 118.424 0.730835 76.4914 0.730835C34.5592 0.730835 0.566406 34.7236 0.566406 76.6558C0.566406 118.588 34.5592 152.581 76.4914 152.581Z" fill="#25AAE1"/>
<path d="M121.099 75.0265C121.511 73.5187 121.648 72.0109 121.648 70.366C121.648 59.9483 113.149 51.4497 102.731 51.4497C100.401 51.4497 98.2079 51.8609 96.1518 52.6834C93.4103 41.5803 83.4038 33.4929 71.4784 33.4929C57.6338 33.4929 46.2567 44.596 46.1196 58.4405C34.8795 60.3595 26.3809 70.0918 26.3809 81.8802C26.3809 95.0394 37.0727 105.731 50.2318 105.731C53.2475 105.731 56.126 105.183 58.8675 104.086C62.7056 109.021 68.874 112.311 75.5906 112.311C81.759 112.311 87.2419 109.706 91.2171 105.457C94.9181 108.747 99.8528 110.666 105.199 110.666C116.987 110.666 126.582 101.071 126.582 89.2822C126.582 83.7993 124.526 78.7275 121.099 75.0265Z" fill="white"/>
<path d="M61.4895 75.3381L48.2106 78.9244C46.8536 73.8842 51.6999 68.0687 58.9694 66.0332C66.142 64.0947 73.0238 66.5178 74.6715 71.4611L61.4895 75.3381Z" fill="#00ADEE"/>
<path d="M93.3927 75.3382L106.672 78.9244C108.029 73.8843 103.182 68.0687 95.9128 66.0332C88.7403 64.0947 81.8585 66.5179 80.2107 71.4611L93.3927 75.3382Z" fill="#00ADEE"/>
<path d="M96.426 90.2217C83.2669 97.7608 69.6965 98.4461 55.3037 90.2217" stroke="#00ADEE" stroke-width="4" stroke-miterlimit="10" stroke-linecap="round"/>
</svg>
