<svg width="300" height="300" viewBox="0 0 300 300" fill="none" xmlns="http://www.w3.org/2000/svg">
<path d="M150 300C232.843 300 300 232.843 300 150C300 67.1573 232.843 0 150 0C67.1573 0 0 67.1573 0 150C0 232.843 67.1573 300 150 300Z" fill="#EA2626"/>
<path d="M119.973 57.6647C125.956 57.6647 130.805 52.8149 130.805 46.8324C130.805 40.8498 125.956 36 119.973 36C113.99 36 109.141 40.8498 109.141 46.8324C109.141 52.8149 113.99 57.6647 119.973 57.6647Z" fill="#3B1516"/>
<path d="M239.129 156.781C239.941 153.802 240.212 150.823 240.212 147.573C240.212 126.992 223.422 110.202 202.841 110.202C198.237 110.202 193.904 111.014 189.842 112.639C184.426 90.7036 164.657 74.7259 141.096 74.7259C113.744 74.7259 91.2673 96.6614 90.9965 124.013C68.7902 127.804 52 147.032 52 170.321C52 196.319 73.1231 217.442 99.1208 217.442C105.079 217.442 110.766 216.359 116.182 214.193C123.764 223.942 135.951 230.441 149.22 230.441C161.407 230.441 172.239 225.296 180.093 216.901C187.405 223.4 197.154 227.191 207.715 227.191C231.005 227.191 249.961 208.235 249.961 184.945C249.961 174.113 245.899 164.093 239.129 156.781Z" fill="#3B1516"/>
<path d="M201.216 87.4539C205.703 87.4539 209.34 83.8165 209.34 79.3296C209.34 74.8427 205.703 71.2054 201.216 71.2054C196.729 71.2054 193.092 74.8427 193.092 79.3296C193.092 83.8165 196.729 87.4539 201.216 87.4539Z" fill="#3B1516"/>
<path d="M183.613 258.064C187.352 258.064 190.383 255.032 190.383 251.293C190.383 247.554 187.352 244.523 183.613 244.523C179.874 244.523 176.843 247.554 176.843 251.293C176.843 255.032 179.874 258.064 183.613 258.064Z" fill="#3B1516"/>
<path d="M75.2895 119.951C79.0286 119.951 82.0597 116.92 82.0597 113.181C82.0597 109.442 79.0286 106.41 75.2895 106.41C71.5504 106.41 68.5193 109.442 68.5193 113.181C68.5193 116.92 71.5504 119.951 75.2895 119.951Z" fill="#3B1516"/>
<path d="M111.849 233.691C119.327 233.691 125.389 227.629 125.389 220.15C125.389 212.672 119.327 206.61 111.849 206.61C104.371 206.61 98.3083 212.672 98.3083 220.15C98.3083 227.629 104.371 233.691 111.849 233.691Z" fill="#3B1516"/>
<path d="M119.973 149.74L143.533 163.28C138.388 172.217 123.494 173.571 110.495 166.259C97.7667 158.947 91.5381 145.948 96.1418 136.741L119.973 149.74Z" fill="#EA2626"/>
<path d="M185.78 149.74L162.219 163.28C167.365 172.217 182.259 173.571 195.258 166.259C207.986 158.947 214.215 145.948 209.611 136.741L185.78 149.74Z" fill="#EA2626"/>
<path d="M109.141 198.485C135.138 183.591 161.948 182.237 190.383 198.485" stroke="#EA2626" stroke-width="4" stroke-miterlimit="10" stroke-linecap="round"/>
</svg>
