<svg width="300" height="300" viewBox="0 0 300 300" fill="none" xmlns="http://www.w3.org/2000/svg">
<path d="M300 150C300 232.843 232.843 300 150 300C67.1573 300 0 232.843 0 150C0 67.1573 67.1573 -9.65532e-07 150 -9.65532e-07C232.843 -9.65532e-07 300 67.1573 300 150Z" fill="#0BDA00"/>
<path d="M132.992 217.351V225.289C132.992 229.069 143.954 234.55 160.964 234.55C177.974 234.55 188.936 229.069 188.936 225.289V217.351C182.321 221.509 171.548 223.777 160.964 223.777C150.38 223.777 139.607 221.509 132.992 217.351Z" fill="white"/>
<path d="M132.992 200.341V208.279C132.992 212.059 143.954 217.54 160.964 217.54C177.974 217.54 188.936 212.059 188.936 208.279V200.341C182.321 204.499 171.548 206.767 160.964 206.767C150.38 206.578 139.607 204.499 132.992 200.341Z" fill="white"/>
<path d="M160.964 181.819C143.954 181.819 132.992 187.3 132.992 191.08C132.992 194.86 143.954 200.341 160.964 200.341C177.974 200.341 188.936 194.86 188.936 191.08C188.747 187.3 177.974 181.819 160.964 181.819Z" fill="white"/>
<path d="M71 217.351V225.289C71 229.069 81.962 234.55 98.972 234.55C115.982 234.55 126.944 229.069 126.944 225.289V217.351C120.329 221.509 109.556 223.777 98.972 223.777C88.388 223.777 77.615 221.509 71 217.351Z" fill="white"/>
<path d="M71 200.341V208.279C71 212.059 81.962 217.54 98.972 217.54C115.982 217.54 126.944 212.059 126.944 208.279V200.341C120.329 204.499 109.556 206.767 98.972 206.767C88.388 206.578 77.615 204.499 71 200.341Z" fill="white"/>
<path d="M71 183.142V191.08C71 194.86 81.962 200.341 98.972 200.341C115.982 200.341 126.944 194.86 126.944 191.08V183.142C120.329 187.3 109.556 189.568 98.972 189.568C88.388 189.379 77.615 187.3 71 183.142Z" fill="white"/>
<path d="M71 165.943V173.881C71 177.661 81.962 183.142 98.972 183.142C115.982 183.142 126.944 177.661 126.944 173.881V165.943C120.329 170.101 109.556 172.369 98.972 172.369C88.388 172.18 77.615 170.101 71 165.943Z" fill="white"/>
<path d="M98.972 147.421C81.962 147.421 71 152.902 71 156.682C71 160.462 81.962 165.943 98.972 165.943C115.982 165.943 126.944 160.462 126.944 156.682C126.755 152.902 115.982 147.421 98.972 147.421Z" fill="white"/>
<path d="M231.839 144.775C225.413 120.772 213.695 92.422 193.661 81.46L207.08 68.23C211.994 63.316 208.592 55 201.788 55H149.624C142.82 55 139.229 63.316 144.332 68.23L157.751 81.46C137.906 92.422 126.377 120.394 119.762 144.208C127.511 146.854 132.992 151.012 132.992 156.682V181.819C139.607 177.661 150.38 175.582 160.964 175.582C177.407 175.582 194.984 181.063 194.984 191.08V191.458C196.685 191.269 198.197 191.269 199.709 191.08C222.389 189.001 237.887 166.888 231.839 144.775ZM188.936 152.146C186.479 154.792 183.266 156.304 179.675 156.493H179.297V162.163C179.297 162.541 178.919 162.919 178.541 162.919H172.871C172.493 162.919 172.115 162.541 172.115 162.163V156.493H171.737C165.122 156.304 159.641 151.012 159.074 144.397C159.074 144.208 159.074 144.019 159.263 143.83C159.452 143.641 159.641 143.641 159.83 143.641H165.5C165.878 143.641 166.256 144.019 166.256 144.397C166.823 147.421 169.28 149.5 172.304 149.5H179.108C180.809 149.5 182.51 148.744 183.644 147.421C184.778 146.098 185.345 144.397 185.156 142.696C184.778 139.672 182.132 137.404 178.919 137.404H172.682C165.5 137.404 159.452 131.923 159.074 124.93C158.885 121.339 160.019 117.937 162.476 115.291C164.933 112.645 168.146 111.133 171.737 110.944H172.115V105.274C172.115 104.896 172.493 104.518 172.871 104.518H178.541C178.919 104.518 179.297 104.896 179.297 105.274V110.944H179.675C186.29 111.133 191.771 116.425 192.338 123.04C192.338 123.229 192.338 123.418 192.149 123.607C191.96 123.796 191.771 123.796 191.582 123.796H185.912C185.534 123.796 185.156 123.607 185.156 123.04C184.589 120.016 182.132 117.937 179.108 117.937H172.304C170.603 117.937 168.902 118.693 167.768 120.016C166.634 121.339 166.067 123.04 166.256 124.741C166.634 127.765 169.28 130.033 172.493 130.033H178.73C185.912 130.033 191.96 135.514 192.338 142.507C192.527 145.909 191.393 149.5 188.936 152.146Z" fill="white"/>
</svg>
